<?xml version="1.0" standalone="no"?>
<!DOCTYPE svg PUBLIC "-//W3C//DTD SVG 20010904//EN"
 "http://www.w3.org/TR/2001/REC-SVG-20010904/DTD/svg10.dtd">
<svg version="1.0" xmlns="http://www.w3.org/2000/svg"
 width="450.000000pt" height="450.000000pt" viewBox="0 0 450.000000 450.000000"
 preserveAspectRatio="xMidYMid meet">

<g transform="translate(0.000000,450.000000) scale(0.100000,-0.100000)"
fill="#000000" stroke="none">
<path d="M1333 2705 c35 -62 115 -138 182 -172 28 -14 63 -33 79 -41 16 -8 59
-26 95 -38 l66 -23 -177 0 c-98 -1 -178 -4 -178 -8 0 -5 16 -29 35 -55 l35
-47 147 -3 148 -3 3 -42 3 -43 -60 0 c-67 0 -79 -8 -53 -36 10 -10 21 -27 24
-36 5 -11 21 -18 50 -20 40 -3 43 -5 42 -30 0 -16 -1 -120 -2 -233 -2 -182 -4
-205 -18 -205 -15 0 -16 -11 -10 -94 l7 -94 -38 -6 c-87 -16 -277 -68 -361
-100 -117 -45 -289 -132 -279 -142 1 -2 47 10 100 26 200 60 461 107 722 131
165 15 541 15 710 0 268 -24 563 -79 751 -141 113 -37 89 -15 -71 64 -120 59
-273 111 -433 147 l-104 23 5 89 c5 82 4 90 -14 94 -18 5 -19 17 -19 239 l0
234 40 0 c34 0 43 5 65 37 14 21 25 41 25 45 0 5 -29 8 -65 8 l-65 0 0 45 0
45 148 0 148 0 26 28 c14 15 33 39 43 55 l17 27 -178 1 -179 0 55 21 c91 35
175 76 231 114 51 35 99 77 99 88 0 3 11 22 25 42 14 20 24 39 22 41 -4 3
-125 -48 -160 -68 -30 -17 -180 -67 -248 -84 -131 -32 -279 -48 -484 -52 -248
-6 -404 11 -615 69 -78 21 -297 109 -340 137 l-25 16 28 -50z m857 -430 l0
-45 -150 0 -150 0 0 45 0 45 150 0 150 0 0 -45z m418 3 l-3 -43 -147 -3 -148
-3 0 39 c0 21 3 42 7 45 3 4 71 7 150 7 l144 0 -3 -42z m2 -372 c0 -225 -1
-234 -20 -239 -18 -4 -20 -14 -20 -74 l0 -68 -325 0 -325 0 0 72 c0 57 -3 73
-15 73 -12 0 -15 36 -17 231 -2 127 -1 233 1 235 2 2 166 4 363 4 l358 0 0
-234z"/>
</g>
</svg>
