<?xml version="1.0" encoding="utf-8"?>
<!-- Generator: Adobe Illustrator 25.4.1, SVG Export Plug-In . SVG Version: 6.00 Build 0)  -->
<svg version="1.1" id="Capa_1" xmlns="http://www.w3.org/2000/svg" xmlns:xlink="http://www.w3.org/1999/xlink" x="0px" y="0px"
	 viewBox="0 0 841.89 595.28" style="enable-background:new 0 0 841.89 595.28;" xml:space="preserve"
	 
	 width="80px" height="80px">
<style type="text/css">
	.st0{fill:#FFFFFF;}
</style>
<g>
	<g>
		<path class="st0" d="M243.47,385.91l-15.06-22l-6.31,7.02v14.98h-12.46v-55.9h12.46v23.5l20.42-23.5h16.4l-21.76,24.21l21.84,31.7
			H243.47z"/>
		<path class="st0" d="M303.24,385.91l-4.02-11.35h-21.6l-4.02,11.35H260.5l21.05-55.9h14.43l20.82,55.9H303.24z M288.57,343.89
			l-6.86,19.32h13.56L288.57,343.89z"/>
		<path class="st0" d="M350.54,385.91l-10.01-20.82h-4.42v20.82h-12.46v-55.9h22.16c5.41,0,9.79,1.66,13.13,4.97
			c3.34,3.31,5.01,7.49,5.01,12.54c0,3.79-0.97,7.06-2.92,9.82c-1.95,2.76-4.65,4.74-8.12,5.95l11.35,22.63H350.54z M336.12,354.38
			h7.33c2.52,0,4.47-0.62,5.83-1.85c1.37-1.23,2.05-2.88,2.05-4.93c0-2.1-0.68-3.76-2.05-4.97c-1.37-1.21-3.31-1.81-5.83-1.81h-7.33
			V354.38z"/>
		<path class="st0" d="M410.55,385.91l-4.02-11.35h-21.6l-4.02,11.35h-13.09l21.05-55.9h14.43l20.82,55.9H410.55z M395.88,343.89
			l-6.86,19.32h13.56L395.88,343.89z"/>
		<path class="st0" d="M464.79,385.91l-15.06-22l-6.31,7.02v14.98h-12.46v-55.9h12.46v23.5l20.42-23.5h16.4l-21.76,24.21l21.84,31.7
			H464.79z"/>
		<path class="st0" d="M524.28,381.54c-4.18,3.76-9.47,5.64-15.89,5.64c-6.41,0-11.71-1.88-15.89-5.64
			c-4.18-3.76-6.27-9.03-6.27-15.81v-35.72h12.46v34.69c0,3.31,0.85,5.84,2.56,7.57c1.71,1.73,4.09,2.6,7.14,2.6
			c3.05,0,5.43-0.87,7.13-2.6s2.56-4.26,2.56-7.57v-34.69h12.46v35.72C530.55,372.51,528.46,377.78,524.28,381.54z"/>
		<path class="st0" d="M569.1,385.91l-10.01-20.82h-4.42v20.82h-12.46v-55.9h22.16c5.41,0,9.79,1.66,13.13,4.97
			c3.34,3.31,5.01,7.49,5.01,12.54c0,3.79-0.97,7.06-2.92,9.82c-1.95,2.76-4.65,4.74-8.12,5.95l11.35,22.63H569.1z M554.67,354.38
			h7.33c2.52,0,4.47-0.62,5.83-1.85c1.37-1.23,2.05-2.88,2.05-4.93c0-2.1-0.68-3.76-2.05-4.97c-1.37-1.21-3.31-1.81-5.83-1.81h-7.33
			V354.38z"/>
		<path class="st0" d="M629.11,385.91l-4.02-11.35h-21.6l-4.02,11.35h-13.09l21.05-55.9h14.43l20.81,55.9H629.11z M614.44,343.89
			l-6.86,19.32h13.56L614.44,343.89z"/>
	</g>
</g>
<g>
	<path class="st0" d="M340.31,167.45c0,0,9.5,13.5,79.25,12.75s78.5-12.75,78.5-12.75l-2.25,19h-5.25l-1.5,6c0,0-60.25,3.5-137.25,0
		l-4.06-5.69h-5.06L340.31,167.45z"/>
	<rect x="371.19" y="191.64" class="st0" width="10.12" height="16.5"/>
	<rect x="415.35" y="191.64" class="st0" width="7.69" height="16.5"/>
	<rect x="457.06" y="191.64" class="st0" width="11.25" height="16.5"/>
	<rect x="349.06" y="207.2" class="st0" width="140.44" height="8.62"/>
	<polygon class="st0" points="369.31,214.33 363.5,287.45 381.31,287.45 381.31,214.33 	"/>
	<polygon class="st0" points="469.06,214.33 474.88,287.45 457.06,287.45 457.06,214.33 	"/>
</g>
</svg>
